<svg width="121" height="121" viewBox="0 0 121 121" fill="none" xmlns="http://www.w3.org/2000/svg">
<path d="M0 60.5L60.5 0L121 60.5L60.5 121L0 60.5Z" fill="black"/>
<path d="M49.5147 27.1209L60.5074 16L71.5 27.1209L82.0147 37.7582L104 60L82.0147 82.2418L71.5 92.8791L60.5074 104L49.5147 92.8791L60.5074 81.7582L39 60L60.5074 38.2418L49.5147 27.1209Z" fill="white"/>
<path d="M71 60L82 49V60H93L82 71L71 60Z" fill="#FAB005"/>
<path d="M60 49L71 38V49H82L71 60L60 49Z" fill="#FAB005"/>
<path d="M71 60L60 71L60 60L49 60L60 49L71 60Z" fill="#BE4BDB"/>
<path d="M71 60L82 71L71 71L71 82L60 71L71 60Z" fill="#82C91E"/>
<path d="M93 60L82 49V60H93Z" fill="#FF0000"/>
<path d="M82 60V71L93 60H82Z" fill="#7B78FF"/>
<path d="M82 60H71L82 71V60Z" fill="#82C91E"/>
</svg>
