<svg width="495" height="121" viewBox="0 0 495 121" fill="none" xmlns="http://www.w3.org/2000/svg">
<path d="M0 60.5L60.5 0L121 60.5L60.5 121L0 60.5Z" fill="black"/>
<path d="M49.5147 27.1209L60.5074 16L71.5 27.1209L82.0147 37.7582L104 60L82.0147 82.2418L71.5 92.8791L60.5074 104L49.5147 92.8791L60.5074 81.7582L39 60L60.5074 38.2418L49.5147 27.1209Z" fill="white"/>
<path d="M71 60L82 49V60H93L82 71L71 60Z" fill="#FAB005"/>
<path d="M60 49L71 38V49H82L71 60L60 49Z" fill="#FAB005"/>
<path d="M71 60L60 71L60 60L49 60L60 49L71 60Z" fill="#BE4BDB"/>
<path d="M71 60L82 71L71 71L71 82L60 71L71 60Z" fill="#82C91E"/>
<path d="M93 60L82 49V60H93Z" fill="#FF0000"/>
<path d="M82 60V71L93 60H82Z" fill="#7B78FF"/>
<path d="M82 60H71L82 71V60Z" fill="#82C91E"/>
<path d="M166.449 91.98C173.379 91.98 178.979 89.46 182.339 86.03V64.47H165.469V69.86H176.319V83.3C174.359 85.12 170.789 86.24 167.079 86.24C156.089 86.24 149.999 78.19 149.999 65.24C149.999 52.43 156.649 44.45 167.009 44.45C172.189 44.45 175.479 46.62 178.069 49.28L181.639 45.08C178.629 42 173.939 38.78 166.869 38.78C153.289 38.78 143.349 48.86 143.349 65.38C143.349 82.04 153.009 91.98 166.449 91.98ZM194.551 91H201.061V69.3H210.581C221.011 69.3 228.501 64.4 228.501 54.11C228.501 43.47 221.011 39.69 210.581 39.69H194.551V91ZM201.061 64.05V45.01H209.671C217.651 45.01 222.061 47.39 222.061 54.11C222.061 60.76 217.651 64.05 209.671 64.05H201.061ZM222.761 91H230.041L214.361 64.19L209.321 67.55L222.761 91ZM257.954 91.98C270.834 91.98 279.794 81.62 279.794 65.17C279.794 48.79 270.834 38.78 257.954 38.78C245.004 38.78 236.044 48.72 236.044 65.17C236.044 81.62 245.004 91.98 257.954 91.98ZM257.954 86.24C248.714 86.24 242.694 77.98 242.694 65.17C242.694 52.36 248.714 44.45 257.954 44.45C267.124 44.45 273.214 52.36 273.214 65.17C273.214 77.98 267.124 86.24 257.954 86.24ZM309.138 91.98C319.638 91.98 327.618 86.31 327.618 69.86V39.69H321.388V70.07C321.388 82.39 315.928 86.24 309.138 86.24C302.417 86.24 297.168 82.39 297.168 70.07V39.69H290.728V69.86C290.728 86.31 298.708 91.98 309.138 91.98ZM341.387 91H347.897V70.63H356.297C367.567 70.63 375.267 65.59 375.267 54.81C375.267 43.54 367.497 39.69 356.017 39.69H341.387V91ZM347.897 65.38V45.01H355.177C364.277 45.01 368.827 47.32 368.827 54.81C368.827 62.09 364.487 65.38 355.527 65.38H347.897ZM385.684 91H415.994V85.54H392.194V66.78H411.584V61.25H392.194V45.15H415.224V39.69H385.684V91ZM426.904 91H432.784V62.65C432.784 58.17 432.294 52.01 431.944 47.46H432.224L436.284 59.15L446.014 85.89H450.354L460.084 59.15L464.144 47.46H464.494C464.144 52.01 463.654 58.17 463.654 62.65V91H469.674V39.69H461.834L452.104 67.2C450.914 70.7 449.794 74.27 448.534 77.91H448.254C446.994 74.27 445.804 70.7 444.544 67.2L434.674 39.69H426.904V91Z" fill="black"/>
</svg>
